<svg width="189" height="189" viewBox="0 0 189 189" fill="none" xmlns="http://www.w3.org/2000/svg">
<rect width="189" height="189" rx="94.5" fill="#EAEAEA"/>
<path d="M66.2578 103H63.2109V98.875H52.5V103H49.4531V94.5977C49.4531 93.3711 49.6641 92.2422 50.0859 91.2109C50.5078 90.1797 51.0938 89.293 51.8438 88.5508C52.5938 87.8086 53.4805 87.2305 54.5039 86.8164C55.5273 86.4023 56.6445 86.1953 57.8555 86.1953H64.7227C64.9336 86.1953 65.1328 86.2344 65.3203 86.3125C65.5078 86.3906 65.6719 86.5 65.8125 86.6406C65.9531 86.7812 66.0625 86.9453 66.1406 87.1328C66.2188 87.3203 66.2578 87.5195 66.2578 87.7305V103ZM52.5 95.8281H63.2109V89.2422H57.8555C57.7617 89.2422 57.5625 89.2578 57.2578 89.2891C56.9609 89.3125 56.6133 89.3789 56.2148 89.4883C55.8242 89.5977 55.4102 89.7656 54.9727 89.9922C54.5352 90.2188 54.1328 90.5312 53.7656 90.9297C53.3984 91.3281 53.0938 91.8281 52.8516 92.4297C52.6172 93.0234 52.5 93.7461 52.5 94.5977V95.8281ZM84.5859 90.332C84.2422 91.4023 83.8398 92.457 83.3789 93.4961C82.918 94.5352 82.3867 95.5273 81.7852 96.4727C81.1914 97.4102 80.5234 98.2812 79.7812 99.0859C79.0469 99.8828 78.2305 100.574 77.332 101.16C76.4414 101.738 75.4688 102.195 74.4141 102.531C73.3672 102.859 72.2305 103.023 71.0039 103.023C70.793 103.023 70.5938 102.984 70.4062 102.906C70.2188 102.828 70.0547 102.723 69.9141 102.59C69.7734 102.449 69.6641 102.289 69.5859 102.109C69.5078 101.922 69.4688 101.723 69.4688 101.512V90.332H72.5156V99.8594C73.2578 99.8594 73.9688 99.6992 74.6484 99.3789C75.3359 99.0586 75.9844 98.6367 76.5938 98.1133C77.2031 97.582 77.7656 96.9805 78.2812 96.3086C78.8047 95.6367 79.2695 94.9492 79.6758 94.2461C80.082 93.5352 80.4258 92.8398 80.707 92.1602C80.9961 91.4805 81.2109 90.8711 81.3516 90.332H84.5859ZM98.3672 98.8047C98.3672 99.2266 98.293 99.6836 98.1445 100.176C97.9961 100.66 97.7539 101.113 97.418 101.535C97.0898 101.949 96.6562 102.297 96.1172 102.578C95.5859 102.859 94.9375 103 94.1719 103H88.6758C88.2539 103 87.7969 102.926 87.3047 102.777C86.8203 102.629 86.3672 102.391 85.9453 102.062C85.5312 101.727 85.1836 101.293 84.9023 100.762C84.6211 100.223 84.4805 99.5703 84.4805 98.8047C84.4805 98.3828 84.5547 97.9258 84.7031 97.4336C84.8516 96.9414 85.0898 96.4883 85.418 96.0742C85.7539 95.6523 86.1875 95.3008 86.7188 95.0195C87.2578 94.7383 87.9102 94.5977 88.6758 94.5977H94.1719V97.5039H88.6758C88.2617 97.5039 87.9414 97.6328 87.7148 97.8906C87.4883 98.1406 87.375 98.4531 87.375 98.8281C87.375 99.2266 87.5039 99.5391 87.7617 99.7656C88.0273 99.9844 88.3398 100.094 88.6992 100.094H94.1719C94.5859 100.094 94.9062 99.9688 95.1328 99.7188C95.3594 99.4688 95.4727 99.1562 95.4727 98.7812V94.5273C95.4727 94.1289 95.3477 93.8125 95.0977 93.5781C94.8555 93.3438 94.5469 93.2266 94.1719 93.2266H87.4805V90.332H94.1719C94.5938 90.332 95.0469 90.4062 95.5312 90.5547C96.0234 90.7031 96.4766 90.9453 96.8906 91.2812C97.3125 91.6094 97.6641 92.043 97.9453 92.582C98.2266 93.1133 98.3672 93.7617 98.3672 94.5273V98.8047ZM112.441 93.3789H107.121V103H104.039V93.3789H100.078V90.332H104.039V86.1953H107.121V90.332H112.441V93.3789ZM126.797 98.8047C126.797 99.2266 126.723 99.6836 126.574 100.176C126.426 100.66 126.184 101.113 125.848 101.535C125.52 101.949 125.086 102.297 124.547 102.578C124.016 102.859 123.367 103 122.602 103H117.105C116.684 103 116.227 102.926 115.734 102.777C115.25 102.629 114.797 102.391 114.375 102.062C113.961 101.727 113.613 101.293 113.332 100.762C113.051 100.223 112.91 99.5703 112.91 98.8047C112.91 98.3828 112.984 97.9258 113.133 97.4336C113.281 96.9414 113.52 96.4883 113.848 96.0742C114.184 95.6523 114.617 95.3008 115.148 95.0195C115.688 94.7383 116.34 94.5977 117.105 94.5977H122.602V97.5039H117.105C116.691 97.5039 116.371 97.6328 116.145 97.8906C115.918 98.1406 115.805 98.4531 115.805 98.8281C115.805 99.2266 115.934 99.5391 116.191 99.7656C116.457 99.9844 116.77 100.094 117.129 100.094H122.602C123.016 100.094 123.336 99.9688 123.562 99.7188C123.789 99.4688 123.902 99.1562 123.902 98.7812V94.5273C123.902 94.1289 123.777 93.8125 123.527 93.5781C123.285 93.3438 122.977 93.2266 122.602 93.2266H115.91V90.332H122.602C123.023 90.332 123.477 90.4062 123.961 90.5547C124.453 90.7031 124.906 90.9453 125.32 91.2812C125.742 91.6094 126.094 92.043 126.375 92.582C126.656 93.1133 126.797 93.7617 126.797 94.5273V98.8047ZM140.484 93.3789H133.629C133.215 93.3789 132.902 93.4844 132.691 93.6953C132.48 93.8984 132.375 94.1992 132.375 94.5977V103H129.328V94.5977C129.328 94.0742 129.395 93.6055 129.527 93.1914C129.66 92.7773 129.836 92.4141 130.055 92.1016C130.281 91.7812 130.539 91.5117 130.828 91.293C131.117 91.0664 131.418 90.8828 131.73 90.7422C132.051 90.6016 132.371 90.5 132.691 90.4375C133.02 90.3672 133.324 90.332 133.605 90.332H140.484V93.3789Z" fill="black"/>
</svg>
