<?xml version="1.0" encoding="UTF-8" standalone="no"?>
<!-- Created with Inkscape (http://www.inkscape.org/) -->

<svg
   width="64pt"
   height="64pt"
   viewBox="0 0 22.577778 22.577778"
   version="1.1"
   id="svg831"
   inkscape:version="1.1.2 (b8e25be833, 2022-02-05)"
   sodipodi:docname="Export - Unblash - 64px.svg.2022_11_25_22_15_20.0.svg"
   inkscape:export-filename="E:\Icon Design\TR Icon Design Project\Carlos - Icon Design Project\November\Asli Siap\Filedline\10 - Skyscraper.png"
   inkscape:export-xdpi="576"
   inkscape:export-ydpi="576"
   xmlns:inkscape="http://www.inkscape.org/namespaces/inkscape"
   xmlns:sodipodi="http://sodipodi.sourceforge.net/DTD/sodipodi-0.dtd"
   xmlns="http://www.w3.org/2000/svg"
   xmlns:svg="http://www.w3.org/2000/svg"
   xmlns:rdf="http://www.w3.org/1999/02/22-rdf-syntax-ns#"
   xmlns:cc="http://creativecommons.org/ns#"
   xmlns:dc="http://purl.org/dc/elements/1.1/">
  <defs
     id="defs825">
    <pattern
       id="EMFhbasepattern"
       patternUnits="userSpaceOnUse"
       width="6"
       height="6"
       x="0"
       y="0" />
    <pattern
       id="EMFhbasepattern-9"
       patternUnits="userSpaceOnUse"
       width="6"
       height="6"
       x="0"
       y="0" />
    <pattern
       id="EMFhbasepattern-0"
       patternUnits="userSpaceOnUse"
       width="6"
       height="6"
       x="0"
       y="0" />
    <pattern
       id="EMFhbasepattern-7"
       patternUnits="userSpaceOnUse"
       width="6"
       height="6"
       x="0"
       y="0" />
    <pattern
       id="EMFhbasepattern-2"
       patternUnits="userSpaceOnUse"
       width="6"
       height="6"
       x="0"
       y="0" />
    <pattern
       id="EMFhbasepattern-98"
       patternUnits="userSpaceOnUse"
       width="6"
       height="6"
       x="0"
       y="0" />
    <pattern
       id="EMFhbasepattern-6"
       patternUnits="userSpaceOnUse"
       width="6"
       height="6"
       x="0"
       y="0" />
    <pattern
       id="EMFhbasepattern-01"
       patternUnits="userSpaceOnUse"
       width="6"
       height="6"
       x="0"
       y="0" />
    <pattern
       id="EMFhbasepattern-07"
       patternUnits="userSpaceOnUse"
       width="6"
       height="6"
       x="0"
       y="0" />
    <pattern
       id="EMFhbasepattern-8"
       patternUnits="userSpaceOnUse"
       width="6"
       height="6"
       x="0"
       y="0" />
    <pattern
       id="EMFhbasepattern-4"
       patternUnits="userSpaceOnUse"
       width="6"
       height="6"
       x="0"
       y="0" />
    <pattern
       id="EMFhbasepattern-40"
       patternUnits="userSpaceOnUse"
       width="6"
       height="6"
       x="0"
       y="0" />
    <pattern
       id="EMFhbasepattern-08"
       patternUnits="userSpaceOnUse"
       width="6"
       height="6"
       x="0"
       y="0" />
    <pattern
       id="EMFhbasepattern-04"
       patternUnits="userSpaceOnUse"
       width="6"
       height="6"
       x="0"
       y="0" />
    <pattern
       id="EMFhbasepattern-014"
       patternUnits="userSpaceOnUse"
       width="6"
       height="6"
       x="0"
       y="0" />
    <pattern
       id="EMFhbasepattern-27"
       patternUnits="userSpaceOnUse"
       width="6"
       height="6"
       x="0"
       y="0" />
    <pattern
       id="EMFhbasepattern-09"
       patternUnits="userSpaceOnUse"
       width="6"
       height="6"
       x="0"
       y="0" />
    <pattern
       id="EMFhbasepattern-5"
       patternUnits="userSpaceOnUse"
       width="6"
       height="6"
       x="0"
       y="0" />
    <pattern
       id="EMFhbasepattern-018"
       patternUnits="userSpaceOnUse"
       width="6"
       height="6"
       x="0"
       y="0" />
    <pattern
       id="EMFhbasepattern-3"
       patternUnits="userSpaceOnUse"
       width="6"
       height="6"
       x="0"
       y="0" />
  </defs>
  <sodipodi:namedview
     id="base"
     pagecolor="#ffffff"
     bordercolor="#666666"
     borderopacity="1.0"
     inkscape:pageopacity="0.0"
     inkscape:pageshadow="2"
     inkscape:zoom="5.3085938"
     inkscape:cx="42.666667"
     inkscape:cy="42.57248"
     inkscape:document-units="pt"
     inkscape:current-layer="layer1"
     showgrid="false"
     units="pt"
     inkscape:window-width="958"
     inkscape:window-height="1041"
     inkscape:window-x="-7"
     inkscape:window-y="0"
     inkscape:window-maximized="0"
     inkscape:pagecheckerboard="true"
     inkscape:showpageshadow="false"
     inkscape:object-paths="true"
     inkscape:snap-intersection-paths="true"
     inkscape:snap-smooth-nodes="true"
     inkscape:snap-midpoints="true"
     showguides="true"
     inkscape:snap-bbox="true"
     inkscape:bbox-nodes="true"
     inkscape:snap-nodes="false"
     inkscape:snap-global="true"
     inkscape:snap-others="false">
    <inkscape:grid
       type="xygrid"
       id="grid1378" />
    <sodipodi:guide
       position="0.97013831,21.607643"
       orientation="78.000048,0"
       id="guide1380"
       inkscape:locked="false" />
    <sodipodi:guide
       position="0.97013831,0.97013129"
       orientation="0,78.000005"
       id="guide1382"
       inkscape:locked="false" />
    <sodipodi:guide
       position="21.607639,0.97013129"
       orientation="-78.000048,0"
       id="guide1384"
       inkscape:locked="false" />
    <sodipodi:guide
       position="21.607639,21.607643"
       orientation="0,-78.000005"
       id="guide1386"
       inkscape:locked="false" />
  </sodipodi:namedview>
  <metadata
     id="metadata828">
    <rdf:RDF>
      <cc:Work
         rdf:about="">
        <dc:format>image/svg+xml</dc:format>
        <dc:type
           rdf:resource="http://purl.org/dc/dcmitype/StillImage" />
      </cc:Work>
    </rdf:RDF>
  </metadata>
  <g
     inkscape:label="Icon"
     inkscape:groupmode="layer"
     id="layer1"
     transform="translate(0,-274.42223)">
    <g
       id="g98234"
       style="display:inline;stroke-width:0.820525"
       transform="matrix(1.2187321,0,0,1.2187321,75.319962,-104.62845)">
      <path
         style="color:#000000;fill:#70c2ef;stroke-width:0.820525;stroke-linecap:round;stroke-linejoin:round;-inkscape-stroke:none"
         d="m -50.719752,312.90247 v 9.13672 c -5.62e-4,0.14693 0.118693,0.26618 0.265625,0.26562 h 5.322265 c 0.146932,5.6e-4 0.266187,-0.11869 0.265625,-0.26562 v -8.8711 c 5.76e-4,-0.14466 -0.115127,-0.26297 -0.259765,-0.26562 z"
         id="path1375024"
         sodipodi:nodetypes="cccccccc" />
      <path
         style="fill:#e2f0fa;fill-opacity:1;stroke:none;stroke-width:0.434195;stroke-linejoin:round;stroke-opacity:1"
         d="m -54.968453,313.5077 h 4.87884 v 9.18772 h -4.947235 z"
         id="path40112" />
      <path
         style="color:#000000;fill:#4f697d;stroke-width:0.820525;stroke-linecap:round;stroke-linejoin:round;-inkscape-stroke:none"
         d="m -54.657252,312.61145 a 0.26460996,0.26460996 0 0 0 -0.263672,0.26367 v 1.0586 a 0.26460996,0.26460996 0 0 0 0.263672,0.26562 h 4.234375 a 0.26460996,0.26460996 0 0 0 0.263672,-0.26562 v -1.0586 a 0.26460996,0.26460996 0 0 0 -0.263672,-0.26367 z"
         id="path1359224" />
      <path
         style="color:#000000;fill:#70c2ef;stroke-width:0.820525;stroke-linecap:round;stroke-linejoin:round;-inkscape-stroke:none"
         d="m -54.975612,312.81653 -4.986328,0.26367 a 0.26460996,0.26460996 0 0 0 -0.25,0.26563 v 8.58594 a 0.26460996,0.26460996 0 0 0 0.263672,0.26367 h 4.986328 a 0.26460996,0.26460996 0 0 0 0.263672,-0.26367 v -8.85157 a 0.26460996,0.26460996 0 0 0 -0.277344,-0.26367 z"
         id="path1359230" />
      <path
         style="color:#000000;fill:#e2f0fa;stroke-width:0.820525;stroke-linecap:round;stroke-linejoin:round;-inkscape-stroke:none"
         d="m -60.21194,322.02161 a 0.26460996,0.26460996 0 0 0 -0.265625,0.26562 v 6.19922 a 0.26460996,0.26460996 0 0 0 0.265625,0.26367 h 15.345703 a 0.26460996,0.26460996 0 0 0 0.263672,-0.26367 v -6.19922 a 0.26460996,0.26460996 0 0 0 -0.263672,-0.26562 z"
         id="path1359236" />
      <path
         style="color:#000000;fill:#4f697d;stroke-width:0.820525;stroke-linecap:round;stroke-linejoin:round;-inkscape-stroke:none"
         d="m -53.86233,324.25208 c -0.435245,0 -0.794925,0.35968 -0.794922,0.79492 v 3.43945 c 5.18e-4,0.14617 0.119455,0.26423 0.265625,0.26367 h 3.703125 c 0.14617,5.6e-4 0.265107,-0.1175 0.265625,-0.26367 V 325.047 c 3e-6,-0.43524 -0.359677,-0.79492 -0.794922,-0.79492 l -1.056389,0.15338 -0.529685,-0.005 v -0.14882 z"
         id="path1359242"
         sodipodi:nodetypes="ssccccsscccs" />
      <path
         id="path4414"
         style="color:#000000;fill:#e2f0fa;stroke-width:0.820525;stroke-linecap:round;stroke-linejoin:round;-inkscape-stroke:none"
         d="m -52.803873,324.25206 v 4.23437 a 0.2645835,0.2645835 0 0 0 0.263551,0.26355 0.2645835,0.2645835 0 0 0 0.266134,-0.26355 v -4.23437 z" />
      <path
         style="color:#000000;fill:#70c2ef;stroke-width:0.820525;stroke-linecap:round;stroke-linejoin:round;-inkscape-stroke:none"
         d="m -49.213893,323.42005 c -0.372841,0 -0.679686,0.3088 -0.679687,0.68164 v 2.87109 c 10e-7,0.37284 0.306846,0.68164 0.679687,0.68164 h 3.931641 c 0.372841,0 0.679686,-0.3088 0.679687,-0.68164 v -2.87109 c -1e-6,-0.37284 -0.306846,-0.68164 -0.679687,-0.68164 z"
         id="path1359256" />
      <path
         style="color:#000000;fill:#4f697d;stroke-width:0.820525;stroke-linecap:round;stroke-linejoin:round;-inkscape-stroke:none"
         d="m -60.21194,312.34583 c -0.289114,0 -0.529293,0.24018 -0.529297,0.52929 v 0.5293 c 4e-6,0.28912 0.240183,0.5293 0.529297,0.5293 h 4.498047 a 0.26460996,0.26460996 0 0 0 0.263672,-0.26367 v -1.0586 a 0.26460996,0.26460996 0 0 0 -0.263672,-0.26562 z"
         id="path1359278" />
      <path
         style="color:#000000;fill:#46a9e7;stroke-width:0.820525;stroke-linecap:round;stroke-linejoin:round;-inkscape-stroke:none"
         d="m -54.127955,314.72864 a 0.26460996,0.26460996 0 0 0 -0.263672,0.26367 v 1.58789 a 0.26460996,0.26460996 0 0 0 0.263672,0.26367 h 0.794922 c 0.289113,0 0.529293,-0.24018 0.529296,-0.52929 v -1.0586 c -3e-6,-0.28911 -0.240183,-0.52734 -0.529296,-0.52734 z"
         id="path1359284" />
      <path
         style="color:#000000;fill:#46a9e7;stroke-width:0.820525;stroke-linecap:round;stroke-linejoin:round;-inkscape-stroke:none"
         d="m -51.745143,314.72864 c -0.289115,0 -0.529293,0.23823 -0.529297,0.52734 v 1.0586 c 4e-6,0.28911 0.240182,0.5293 0.529297,0.52929 h 0.792969 a 0.26460996,0.26460996 0 0 0 0.263672,-0.26367 v -1.58789 a 0.26460996,0.26460996 0 0 0 -0.263672,-0.26367 z"
         id="path1359290" />
      <path
         style="color:#000000;fill:#46a9e7;stroke-width:0.820525;stroke-linecap:round;stroke-linejoin:round;-inkscape-stroke:none"
         d="m -51.745143,317.37317 c -0.289115,0 -0.529293,0.24018 -0.529297,0.5293 v 1.05859 c 4e-6,0.28912 0.240182,0.5293 0.529297,0.5293 h 0.792969 a 0.26460996,0.26460996 0 0 0 0.263672,-0.26563 v -1.58593 a 0.26460996,0.26460996 0 0 0 -0.263672,-0.26563 z"
         id="path1359296" />
      <path
         style="color:#000000;fill:#46a9e7;stroke-width:0.820525;stroke-linecap:round;stroke-linejoin:round;-inkscape-stroke:none"
         d="m -54.127955,317.37317 a 0.26460996,0.26460996 0 0 0 -0.263672,0.26563 v 1.58593 a 0.26460996,0.26460996 0 0 0 0.263672,0.26563 h 0.794922 c 0.289113,0 0.529293,-0.24018 0.529296,-0.5293 v -1.05859 c -3e-6,-0.28912 -0.240183,-0.5293 -0.529296,-0.5293 z"
         id="path1359302" />
      <path
         style="color:#000000;fill:#46a9e7;stroke-width:0.820525;stroke-linecap:round;stroke-linejoin:round;-inkscape-stroke:none"
         d="m -54.127955,320.01966 a 0.26460996,0.26460996 0 0 0 -0.263672,0.26367 v 1.58789 a 0.26460996,0.26460996 0 0 0 0.263672,0.26562 h 0.794922 c 0.289113,0 0.529293,-0.24018 0.529296,-0.52929 v -1.0586 c -3e-6,-0.28911 -0.240183,-0.52929 -0.529296,-0.52929 z"
         id="path1359308" />
      <path
         style="color:#000000;fill:#46a9e7;stroke-width:0.820525;stroke-linecap:round;stroke-linejoin:round;-inkscape-stroke:none"
         d="m -51.745143,320.01966 c -0.289115,0 -0.529293,0.24018 -0.529297,0.52929 v 1.0586 c 4e-6,0.28911 0.240182,0.52929 0.529297,0.52929 h 0.792969 a 0.26460996,0.26460996 0 0 0 0.263672,-0.26562 v -1.58789 a 0.26460996,0.26460996 0 0 0 -0.263672,-0.26367 z"
         id="path1359314" />
      <path
         style="color:#000000;fill:#4f697d;stroke-width:0.820525;stroke-linecap:round;stroke-linejoin:round;-inkscape-stroke:none"
         d="m -49.364283,321.34192 a 0.26460996,0.26460996 0 0 0 -0.265625,0.26563 v 1.05859 a 0.26460996,0.26460996 0 0 0 0.265625,0.26367 h 4.498046 c 0.289107,0 0.529293,-0.24018 0.529297,-0.52929 v -0.5293 c -4e-6,-0.28911 -0.240178,-0.5293 -0.529297,-0.5293 z"
         id="path1359324" />
      <path
         style="color:#000000;fill:#4f697d;stroke-width:0.820525;stroke-linecap:round;stroke-linejoin:round;-inkscape-stroke:none"
         d="m -49.364283,312.34583 a 0.26460996,0.26460996 0 0 0 -0.265625,0.26562 v 1.0586 a 0.26460996,0.26460996 0 0 0 0.265625,0.26367 h 4.498046 c 0.289119,0 0.529293,-0.24018 0.529297,-0.5293 v -0.5293 c -4e-6,-0.28911 -0.240178,-0.52929 -0.529297,-0.52929 z"
         id="path1359342" />
      <path
         style="color:#000000;fill:#4f697d;stroke-width:0.820525;stroke-linecap:round;stroke-linejoin:round;-inkscape-stroke:none"
         d="m -60.21194,321.34192 c -0.289119,0 -0.529293,0.24019 -0.529297,0.5293 v 0.5293 c 4e-6,0.28911 0.24019,0.52929 0.529297,0.52929 h 4.498047 a 0.26460996,0.26460996 0 0 0 0.263672,-0.26367 v -1.05859 a 0.26460996,0.26460996 0 0 0 -0.263672,-0.26563 z"
         id="path1359348" />
      <path
         style="color:#000000;fill:#70c2ef;stroke-width:0.820525;stroke-linecap:round;stroke-linejoin:round;-inkscape-stroke:none"
         d="m -59.795924,323.45911 c -0.372841,0 -0.681639,0.3088 -0.681641,0.68164 v 2.87109 c 2e-6,0.37284 0.3088,0.67969 0.681641,0.67969 h 3.929687 c 0.372842,0 0.679686,-0.30685 0.679688,-0.67969 v -2.87109 c -2e-6,-0.37284 -0.306846,-0.68164 -0.679688,-0.68164 z"
         id="path1359354" />
      <path
         style="color:#000000;fill:#c8dae5;stroke-width:0.820525;stroke-linecap:round;stroke-linejoin:round;-inkscape-stroke:none"
         d="m -55.450221,311.81653 c -0.289119,0 -0.529297,0.24018 -0.529297,0.5293 v 10.58398 c 0,0.43524 0.357731,0.79297 0.792969,0.79297 h 5.292969 c 0.435238,0 0.792968,-0.35773 0.792968,-0.79297 v -10.58398 c 0,-0.28912 -0.240177,-0.5293 -0.529296,-0.5293 h -1.058594 c -0.289119,0 -0.529297,0.24018 -0.529297,0.5293 v 9.26172 h -2.644531 v -9.26172 c 0,-0.28912 -0.240178,-0.5293 -0.529297,-0.5293 z"
         id="path1359360" />
      <path
         id="rect1156"
         style="color:#000000;display:inline;fill:#000000;stroke-width:0.820525;stroke-linecap:round;stroke-linejoin:round;-inkscape-stroke:none"
         d="m -55.449331,311.81666 c -0.289118,0 -0.529167,0.24006 -0.529167,0.52917 h -4.234365 c -0.289116,0 -0.527614,0.24005 -0.527616,0.52916 v 0.52917 c 2e-6,0.28911 0.2385,0.52968 0.527616,0.52968 v 7.40782 c -0.289121,0 -0.527614,0.24057 -0.527616,0.52968 v 0.52917 c 2e-6,0.19338 0.106971,0.36445 0.264064,0.45682 v 5.3635 c -0.146327,2.6e-4 -0.264636,0.11929 -0.264064,0.26562 5.29e-4,0.14551 0.118544,0.26326 0.264064,0.26354 h 15.875001 c 0.14532,-5.2e-4 0.262985,-0.11822 0.263551,-0.26354 5.29e-4,-0.14613 -0.117424,-0.26505 -0.263551,-0.26562 3.2e-5,-1.7883 0,-3.57546 0,-5.36351 0.157011,-0.0924 0.263549,-0.26351 0.263551,-0.45682 v -0.52917 c -5e-6,-0.28911 -0.238498,-0.52968 -0.527616,-0.52968 1.11e-4,-2.46997 0,-4.93823 0,-7.40784 0.289118,0 0.527611,-0.24057 0.527616,-0.52968 v -0.52917 c -5e-6,-0.28911 -0.238498,-0.52916 -0.527616,-0.52916 h -4.234368 c 0,-0.28911 -0.240048,-0.52917 -0.529167,-0.52917 h -1.058333 c -0.289118,0 -0.529683,0.24006 -0.529683,0.52917 v 0.26561 h -2.644283 v -0.26558 c 0,-0.28911 -0.240048,-0.52917 -0.529166,-0.52917 z m 0,0.52917 h 1.058852 v 9.52551 c 5.29e-4,0.14532 0.118234,0.26297 0.263549,0.26356 h 3.175516 c 0.145515,-2.7e-4 0.263485,-0.11804 0.264067,-0.26356 v -9.52551 h 1.058333 v 10.58385 c 0,0.14926 -0.114286,0.26355 -0.263548,0.26355 h -5.293218 c -0.149264,0 -0.263551,-0.11429 -0.263551,-0.26355 0,-3.67311 0,-7.43497 0,-10.58385 z m -4.763532,0.52916 h 4.234365 v 0.52917 h -4.234365 z m 11.113016,0 h 4.234368 v 0.52917 h -4.234368 z m -4.761466,0.26355 h 2.644283 v 0.52969 h -2.644283 z m -5.822383,0.7953 h 1.588015 v 1.4547 h -1.588015 z m 2.117182,0 h 1.588016 v 1.4547 h -1.588016 z m 8.466667,0 h 1.588016 v 1.4547 h -1.588016 z m 2.117183,0 h 1.588018 v 1.4547 h -1.588018 z m -6.878649,0.26355 h 2.644283 v 0.52917 h -0.529166 c -0.289116,0 -0.529164,0.24005 -0.529167,0.52917 v 1.05885 c 3e-6,0.28912 0.240051,0.52916 0.529167,0.52916 h 0.529166 v 0.52917 h -0.529166 c -0.289116,0 -0.529164,0.24057 -0.529167,0.52968 v 1.05834 c 3e-6,0.28911 0.240051,0.52917 0.529167,0.52916 h 0.529166 v 0.52969 h -0.529166 c -0.289116,0 -0.529164,0.24004 -0.529167,0.52917 v 1.05678 h -0.527616 v -1.05678 c -5e-6,-0.28913 -0.240054,-0.52917 -0.529167,-0.52917 h -0.529167 v -0.52969 h 0.529167 c 0.289113,0 0.529162,-0.24005 0.529167,-0.52916 v -1.05834 c -5e-6,-0.28911 -0.240054,-0.52968 -0.529167,-0.52968 h -0.529167 v -0.52917 h 0.529167 c 0.289113,0 0.529162,-0.24004 0.529167,-0.52916 v -1.05885 c -5e-6,-0.28911 -0.240054,-0.52917 -0.529167,-0.52917 h -0.529167 z m 0,1.05834 h 0.529167 v 1.05885 h -0.529167 z m 2.115117,0 h 0.529166 v 1.05885 h -0.529166 z m -7.9375,0.66249 h 1.588015 v 1.45469 h -1.588015 z m 2.117182,0 h 1.588016 v 1.45469 h -1.588016 z m 8.466667,0 h 1.588016 v 1.45469 h -1.588016 z m 2.117183,0 h 1.588018 v 1.45469 h -1.588018 z m -12.701032,1.98437 h 1.588015 v 1.4547 h -1.588015 z m 2.117182,0 h 1.588016 v 1.4547 h -1.588016 z m 3.705201,0 h 0.529167 v 1.05834 h -0.529167 z m 2.115117,0 h 0.529166 v 1.05834 h -0.529166 z m 2.646349,0 h 1.588016 v 1.4547 h -1.588016 z m 2.117183,0 h 1.588018 v 1.4547 h -1.588018 z m -12.701032,1.98438 h 1.588015 v 1.45469 h -1.588015 z m 2.117182,0 h 1.588016 v 1.45469 h -1.588016 z m 8.466667,0 h 1.588016 v 1.45469 h -1.588016 z m 2.117183,0 h 1.588018 v 1.45469 h -1.588018 z m -6.878649,0.66198 h 0.529167 v 1.05678 h -0.529167 z m 2.115117,0 h 0.529166 v 1.05678 h -0.529166 z m -8.466667,1.32239 h 4.234365 v 0.52917 h -4.234365 z m 11.113016,0 h 4.234368 v 0.52917 h -4.234368 z m -10.847401,1.05834 h 3.96875 c 0,0.43524 0.357479,0.79323 0.792718,0.79323 h 5.293218 c 0.435237,0 0.792715,-0.35799 0.792715,-0.79323 h 3.96875 v 0.52916 h -3.439067 c -0.145722,2.7e-4 -0.263782,0.11835 -0.264065,0.26407 -5.29e-4,0.14633 0.117737,0.26533 0.264065,0.26562 h 1.058333 v 3.17345 h -1.851565 v -1.99006 l 0.394809,-0.31626 c 0.114734,-0.0915 0.133051,-0.25894 0.04082,-0.37311 -0.113014,-0.13042 -0.257799,-0.13304 -0.373102,-0.0393 l -0.06253,0.0501 v -0.0889 c 5.29e-4,-0.14693 -0.118684,-0.26619 -0.265618,-0.26561 -0.146124,5.3e-4 -0.26412,0.11949 -0.263548,0.26561 v 2.75746 c 0,0.28911 0.240045,0.52968 0.529166,0.52968 h 4.232299 v 0.52917 h -5.290632 v -3.17604 c 3e-6,-0.43524 -0.360058,-0.79271 -0.795301,-0.79271 h -2.644283 c -0.435244,0 -0.794787,0.35747 -0.794784,0.79271 v 3.17603 h -5.291151 v -0.52917 h 4.232302 c 0.289118,0 0.529166,-0.24057 0.529166,-0.52968 7.94e-4,-0.92101 0,-1.83869 0,-2.75746 5.29e-4,-0.14612 -0.117424,-0.26504 -0.263551,-0.26561 -0.146931,-5.3e-4 -0.26619,0.11868 -0.265615,0.26561 v 0.7798 l -0.394293,0.31781 c -0.112908,0.0918 -0.130456,0.25761 -0.03927,0.37104 0.09137,0.1134 0.257199,0.13164 0.371036,0.0408 l 0.06253,-0.0501 v 1.29811 h -1.851568 v -3.17345 h 1.058849 c 0.146127,-5.3e-4 0.264123,-0.11949 0.263552,-0.26562 -2.65e-4,-0.14552 -0.118031,-0.2635 -0.263552,-0.26407 h -3.439583 z m 0,1.05885 h 1.851567 v 3.17345 h -1.851567 v -1.99006 l 0.394293,-0.31626 c 0.114898,-0.0914 0.13345,-0.2588 0.04134,-0.37311 -0.116115,-0.13248 -0.256977,-0.12645 -0.373105,-0.0393 l -0.06253,0.0501 z m 12.964584,0 h 1.851567 v 1.19579 l -0.39429,0.31781 c -0.1134,0.0914 -0.131646,0.2572 -0.04082,0.37104 0.09152,0.11473 0.25894,0.13305 0.373105,0.0408 l 0.06201,-0.0501 v 1.29811 h -1.851567 z m -9.462472,0.45475 -0.492476,0.39636 c -0.113401,0.0914 -0.131647,0.2572 -0.04082,0.37104 0.09121,0.11356 0.257061,0.13204 0.371036,0.0413 l 0.494027,-0.39636 c 0.114898,-0.0914 0.133451,-0.2588 0.04134,-0.37311 -0.115371,-0.12467 -0.263504,-0.10856 -0.373105,-0.0393 z m 10.583853,0 -0.494028,0.39636 c -0.112911,0.0918 -0.130458,0.2576 -0.03927,0.37104 0.09121,0.11356 0.257061,0.13204 0.371035,0.0413 l 0.494028,-0.39636 c 0.114898,-0.0914 0.13345,-0.2588 0.04134,-0.37311 -0.100627,-0.11869 -0.261747,-0.12072 -0.373102,-0.0393 z m -8.00003,0.33796 h 1.058334 v 3.43959 h -1.323951 v -3.17604 c 0,-0.14926 0.116358,-0.26355 0.265617,-0.26355 z m 1.58595,0 h 1.058333 c 0.14926,0 0.265618,0.11429 0.265616,0.26355 v 3.17604 h -1.323949 z m -6.779432,0.32247 -0.494027,0.39842 c -0.113398,0.0914 -0.131644,0.2572 -0.04082,0.37104 0.09148,0.11439 0.258501,0.1327 0.372586,0.0408 l 0.494544,-0.39636 c 0.11408,-0.0921 0.131463,-0.25948 0.03876,-0.3731 -0.103177,-0.1193 -0.244724,-0.13323 -0.371036,-0.0408 z m 10.583849,0 -0.494024,0.39842 c -0.113401,0.0914 -0.131646,0.2572 -0.04083,0.37104 0.09152,0.11473 0.25894,0.13305 0.373105,0.0408 l 0.491959,-0.39636 c 0.114895,-0.0914 0.133448,-0.2588 0.04134,-0.3731 -0.111583,-0.11941 -0.270804,-0.11351 -0.371555,-0.0408 z m -4.8612,0.99994 c -0.146934,-5.3e-4 -0.266192,0.11868 -0.265618,0.26561 v 0.26355 c -5.29e-4,0.14694 0.118684,0.26619 0.265618,0.26562 0.146124,-5.3e-4 0.26412,-0.11949 0.263549,-0.26562 v -0.26355 c 5.29e-4,-0.14612 -0.117425,-0.26504 -0.263549,-0.26561 z m 1.58595,0 c -0.146127,5.2e-4 -0.264123,0.11948 -0.263552,0.26561 v 0.26355 c -5.29e-4,0.14613 0.117425,0.26505 0.263552,0.26562 0.146931,5.3e-4 0.266189,-0.11869 0.265615,-0.26562 v -0.26355 c 5.29e-4,-0.14693 -0.118684,-0.26619 -0.265615,-0.26561 z"
         sodipodi:nodetypes="scsssccssccsccsccssccssscsssccssscccccccccssccccccccccccccccccccccccccccccccccccccccssssccssscccsscccsccsccsccsccsccccccccccccccccccccccccccccccccccccccccccccccccccccccccccccccccccccccccccccccccccccccccccccccccccccccccsscccccccccccccccscssccccssccccsccsccccccccccccccccccccccccccccscccccccccccccccccccscccsscscccccccccccccsccccsccsccssccsccs" />
    </g>
  </g>
</svg>
