<svg width="107" height="107" viewBox="0 0 107 107" fill="none" xmlns="http://www.w3.org/2000/svg">
<rect width="107" height="107" rx="20" fill="#A4A4A4"/>
<path fill-rule="evenodd" clip-rule="evenodd" d="M61.5 29.5V21.5H45.5V29.5H61.5ZM21.5 37.5V81.5H85.5V37.5H21.5ZM85.5 29.5C89.94 29.5 93.5 33.06 93.5 37.5V81.5C93.5 85.94 89.94 89.5 85.5 89.5H21.5C17.06 89.5 13.5 85.94 13.5 81.5L13.54 37.5C13.54 33.06 17.06 29.5 21.5 29.5H37.5V21.5C37.5 17.06 41.06 13.5 45.5 13.5H61.5C65.94 13.5 69.5 17.06 69.5 21.5V29.5H85.5Z" fill="black"/>
</svg>
